# xmcd
# Copyright (C) 1995-1998 Ti Kan
#
# Track frame offsets:
#       150
#       15497
#       46050
#       61060
#       76060
#       92812
#       106050
#       124050
#       142585
#       154500
#
# Disc length: 2297 seconds
#
# Revision: 0
# Processed by: cddbd v1.5.2PL0 Copyright (c) Steve Scherf et al.
# Submitted via: CD-Import v1.0
#
DISCID=6208f70a
DTITLE=Celyane - Promo
DYEAR=05
DGENRE=
TTITLE0=Qu'ils S'en Aillent
TTITLE1=Loin
TTITLE2=Alarmant
TTITLE3=Phénomènes
TTITLE4=L'auréole
TTITLE5=J-1
TTITLE6=Les Samouraïs
TTITLE7=Anormal
TTITLE8=Formidable
TTITLE9="523"
EXTD=
EXTT0=
EXTT1=
EXTT2=
EXTT3=
EXTT4=
EXTT5=
EXTT6=
EXTT7=
EXTT8=
EXTT9=
PLAYORDER=
